# xmcd CD database file
#
# Track frame offsets:
#	150
#	19246
#	40097
#	59612
#	73637
#	93538
#	95822
#	114504
#	129593
#	152299
#	174118
#	199087
#
# Disc length: 2891 seconds
#
# Revision: 0
# Processed by: cddbd v1.5.2PL0 Copyright (c) Steve Scherf et al.
# Submitted via: NeoAudio 9.9.9
#
DISCID=9d0b490c
DTITLE=Kawada - Shaving your Beard On A Nice White Cloud
DYEAR=2008
DGENRE=Salsa
TTITLE0=My Birthday Isn't In June
TTITLE1=It Grows On You
TTITLE2=Creating A Bigger Boat
TTITLE3=Ukulele Song
TTITLE4=Corrugated Board
TTITLE5=In Campo
TTITLE6=Black Spider
TTITLE7=Daisy
TTITLE8=Frozen Farms
TTITLE9=Eating Fish
TTITLE10=Fake License
TTITLE11=Cruel Tree
EXTD=YEAR: 2008
EXTT0=
EXTT1=
EXTT2=
EXTT3=
EXTT4=
EXTT5=
EXTT6=
EXTT7=
EXTT8=
EXTT9=
EXTT10=
EXTT11=
PLAYORDER=
